<svg width="80" height="80" viewBox="0 0 80 80" fill="none" xmlns="http://www.w3.org/2000/svg">
<g clip-path="url(#clip0_607_449)">
<path opacity="0.996" fill-rule="evenodd" clip-rule="evenodd" d="M38.6446 -0.0114746C39.5405 -0.0114746 40.4366 -0.0114746 41.3325 -0.0114746C49.9473 0.345017 57.6619 3.12786 64.476 8.33704C70.4874 13.057 74.8421 18.9986 77.5398 26.1616C79.0724 30.3728 79.8885 34.7161 79.9885 39.1913C79.9885 39.7152 79.9885 40.2391 79.9885 40.763C79.7478 49.5386 76.9878 57.4049 71.7083 64.3621C66.5206 71.0113 59.8958 75.6241 51.8336 78.2004C48.1115 79.3396 44.3074 79.9357 40.4213 79.9885C40.1327 79.9885 39.8443 79.9885 39.5557 79.9885C29.7806 79.7801 21.1929 76.5263 13.7926 70.2277C8.27299 65.3956 4.33602 59.4919 1.98169 52.517C0.775858 48.8202 0.11147 45.0314 -0.0114746 41.1503C-0.0114746 40.3683 -0.0114746 39.586 -0.0114746 38.804C0.314648 30.0448 3.14304 22.2163 8.47372 15.3188C13.5353 8.93174 19.9476 4.45566 27.7106 1.89058C31.2712 0.75679 34.9159 0.122774 38.6446 -0.0114746Z" fill="#FDFDFD"/>
<path fill-rule="evenodd" clip-rule="evenodd" d="M39.1913 1.78813C47.4794 1.69505 55.0268 3.98435 61.8336 8.65601C68.5553 13.4279 73.3047 19.7035 76.0819 27.4829C78.5398 34.769 78.8282 42.1419 76.9475 49.6013C74.7054 57.8742 70.2521 64.6738 63.5876 70C57.6266 74.6451 50.8612 77.3177 43.2915 78.0182C34.8334 78.6979 26.9974 76.8223 19.7835 72.3918C12.7582 67.9291 7.66706 61.8433 4.51018 54.1344C1.89161 47.4508 1.17028 40.564 2.34617 33.4738C3.81802 25.3845 7.45127 18.4635 13.2459 12.7107C19.2173 6.93093 26.3396 3.41537 34.6127 2.16398C36.1355 1.95429 37.6617 1.829 39.1913 1.78813Z" fill="#A8DABF"/>
<path fill-rule="evenodd" clip-rule="evenodd" d="M25.6149 72.7677C25.8593 72.2711 26.1099 71.7777 26.3666 71.2871C26.153 71.1632 25.9366 71.0415 25.7174 70.9226C25.5887 70.2645 25.4826 69.6039 25.3985 68.9408C26.2972 68.501 27.1969 68.0643 28.0978 67.631C27.7842 67.4648 27.4691 67.3014 27.1525 67.1413C26.388 67.5331 25.6249 67.9279 24.8632 68.3258C24.8557 68.3183 24.8479 68.3105 24.8404 68.303C25.1575 67.6916 25.4689 67.0766 25.7744 66.4579C25.5311 66.3135 25.2805 66.1805 25.0227 66.0593C24.9967 66.0422 24.9739 66.0461 24.9543 66.0707C24.2281 67.5117 23.4992 68.9506 22.7675 70.3873C22.7734 70.416 22.7887 70.4388 22.8131 70.4556C23.0616 70.578 23.3083 70.7033 23.5534 70.8315C23.8798 70.1937 24.2065 69.5559 24.5329 68.9181C24.6726 69.7666 24.8017 70.6169 24.9202 71.4693C24.9259 71.4948 24.9372 71.5176 24.9543 71.5376C25.0263 71.5698 25.0946 71.6078 25.1593 71.6515C25.0411 71.9033 24.9122 72.1461 24.7721 72.3805C18.2895 69.2807 13.1604 64.6718 9.38485 58.5536C5.73481 52.4504 4.01121 45.8367 4.21401 38.713C4.59754 30.1771 7.57399 22.7055 13.1434 16.2985C18.0215 10.8298 24.0238 7.15856 31.1502 5.2848C36.27 4.0125 41.4259 3.85304 46.6172 4.80644C54.7858 6.43072 61.6003 10.3525 67.0614 16.5718C72.5591 23.0301 75.4596 30.5244 75.763 39.0547C75.9001 46.3789 74.0172 53.129 70.1138 59.3053C66.3033 65.1431 61.2425 69.5433 54.9315 72.5058C47.9958 75.6231 40.7826 76.5039 33.2915 75.1481C30.6427 74.6411 28.0839 73.8477 25.6149 72.7677Z" fill="#FDFDFD"/>
<path fill-rule="evenodd" clip-rule="evenodd" d="M38.5991 9.85196C38.5991 9.88993 38.5991 9.92788 38.5991 9.96585C38.5697 9.96045 38.547 9.96804 38.5308 9.98863C38.2572 9.9997 37.9839 10.0149 37.7107 10.0342C37.6734 9.4638 37.6278 8.89433 37.5741 8.32576C37.5811 8.26319 37.5736 8.20244 37.5513 8.14353C37.5374 8.14635 37.5299 8.15394 37.5285 8.16631C37.1495 8.82651 36.7697 9.48711 36.3896 10.1481C36.0515 10.1792 35.7135 10.2096 35.3759 10.2392C35.3645 10.2316 35.3531 10.224 35.3417 10.2164C35.7322 9.58697 36.1269 8.96055 36.5262 8.33715C35.7445 8.26148 35.2697 7.84007 35.1025 7.07292C35.0189 5.96394 35.5315 5.33752 36.6401 5.19364C37.1711 5.14433 37.7028 5.10257 38.2347 5.06836C38.3593 6.66266 38.4807 8.2572 38.5991 9.85196Z" fill="#1D1663"/>
<path fill-rule="evenodd" clip-rule="evenodd" d="M42.2437 5.15942C42.5157 5.17669 42.7854 5.20705 43.0524 5.25054C43.5644 6.92696 44.0692 8.60503 44.5672 10.2847C44.2332 10.2594 43.8993 10.2366 43.5649 10.2164C43.2401 8.95694 42.8945 7.70409 42.5284 6.45783C41.9956 7.62229 41.4565 8.78403 40.9111 9.94302C40.5733 9.96651 40.2353 9.95131 39.8975 9.89746C40.6799 8.31751 41.4619 6.73817 42.2437 5.15942Z" fill="#1D1663"/>
<path fill-rule="evenodd" clip-rule="evenodd" d="M47.278 5.729C47.5637 5.82169 47.8523 5.9052 48.1436 5.97957C47.9798 6.55067 47.809 7.12014 47.6311 7.688C47.6126 7.73536 47.6165 7.78092 47.6425 7.82468C47.9637 7.92033 48.2826 8.02283 48.5992 8.13219C49.435 8.55825 49.6892 9.21504 49.3623 10.1026C49.0883 10.6916 48.6249 10.9953 47.9728 11.0137C47.7425 11.0065 47.5186 10.9647 47.3008 10.8885C46.8313 10.7396 46.3607 10.5953 45.8885 10.4557C45.8753 10.4353 45.8678 10.4125 45.8657 10.3873C46.3347 8.83365 46.8056 7.28089 47.278 5.729Z" fill="#1D1663"/>
<path fill-rule="evenodd" clip-rule="evenodd" d="M32.4032 5.75171C32.4317 5.75346 32.4506 5.76866 32.4602 5.79727C32.9253 7.3426 33.3923 8.88777 33.8611 10.4328C33.8517 10.4543 33.8367 10.4695 33.8155 10.4784C33.554 10.5599 33.2921 10.6396 33.0296 10.7175C33.0183 10.71 33.0069 10.7023 32.9955 10.6948C32.6613 9.6085 32.3271 8.52269 31.9932 7.43736C31.618 8.74861 31.2536 10.0622 30.8998 11.3781C30.6025 11.457 30.3064 11.5405 30.0114 11.6287C29.5547 10.0609 29.0839 8.49672 28.5991 6.93622C28.8725 6.83649 29.1497 6.74538 29.4306 6.66287C29.4481 6.66617 29.4634 6.67376 29.4761 6.68565C29.806 7.77408 30.1401 8.85986 30.4784 9.94305C30.8358 8.6344 31.2003 7.32841 31.5718 6.02506C31.852 5.93529 32.129 5.84417 32.4032 5.75171Z" fill="#1D1663"/>
<path fill-rule="evenodd" clip-rule="evenodd" d="M37.1184 6.02515C37.2096 6.02515 37.3007 6.02515 37.3918 6.02515C37.4335 6.51082 37.4715 6.99679 37.5057 7.48301C37.2822 7.50257 37.0581 7.51777 36.8337 7.52856C36.2134 7.5233 35.9401 7.21198 36.0137 6.59462C36.1066 6.32715 36.2927 6.16389 36.5717 6.10487C36.7563 6.07073 36.9385 6.04414 37.1184 6.02515Z" fill="#FBFBFC"/>
<path fill-rule="evenodd" clip-rule="evenodd" d="M50.8769 6.84521C51.1594 6.91779 51.4402 6.99752 51.7197 7.08439C51.7325 7.10091 51.74 7.11988 51.7425 7.14134C51.2657 8.69722 50.791 10.2538 50.3188 11.811C50.0423 11.7239 49.7651 11.6366 49.4874 11.5491C49.4755 11.5363 49.4678 11.5211 49.4646 11.5035C49.9377 9.95105 50.4086 8.39827 50.8769 6.84521Z" fill="#1D1663"/>
<path fill-rule="evenodd" clip-rule="evenodd" d="M26.7997 7.57397C26.9149 7.79691 27.0249 8.0247 27.13 8.25735C27.1525 8.3017 27.16 8.34725 27.1527 8.39402C26.6921 8.60343 26.2327 8.81602 25.7746 9.03183C26.3418 10.2572 26.896 11.4873 27.4375 12.722C27.1823 12.8192 26.9318 12.9293 26.6858 13.0523C26.6566 13.0679 26.63 13.0641 26.606 13.0409C25.9279 11.5706 25.2559 10.0976 24.5901 8.62181C24.65 8.56894 24.7183 8.52719 24.7951 8.49653C25.4684 8.19511 26.1368 7.8876 26.7997 7.57397Z" fill="#1D1663"/>
<path fill-rule="evenodd" clip-rule="evenodd" d="M54.7038 14.8406C54.6888 14.8611 54.6738 14.8839 54.6583 14.909C54.3888 14.7705 54.1232 14.6262 53.861 14.4762C53.8829 14.4403 53.8979 14.4023 53.9066 14.3623C54.038 14.1339 54.1669 13.9024 54.2938 13.6675C54.2123 13.621 54.1325 13.5717 54.0546 13.5195C53.9467 12.6531 53.8328 11.7875 53.713 10.9226C53.3751 11.5529 53.0371 12.1831 52.6993 12.8133C52.4487 12.6804 52.1982 12.5475 51.9476 12.4147C51.9357 12.4019 51.928 12.3867 51.9248 12.3691C52.6715 10.9172 53.4385 9.47828 54.2255 8.05249C54.4656 8.18238 54.7086 8.30766 54.9544 8.42834C54.974 8.44404 54.989 8.46301 55 8.48529C54.6695 9.10839 54.3469 9.73103 54.0319 10.3532C54.8079 9.95372 55.59 9.56648 56.3781 9.19144C56.6947 9.35923 57.0098 9.53008 57.3234 9.70397C56.4095 10.1116 55.4984 10.5254 54.59 10.9454C54.5824 10.9644 54.5747 10.9834 54.5672 11.0024C54.6706 11.6504 54.7654 12.2996 54.8519 12.95C55.0701 13.0686 55.2865 13.1901 55.5011 13.3144C55.2294 13.8202 54.9635 14.3289 54.7038 14.8406Z" fill="#1D1663"/>
<path fill-rule="evenodd" clip-rule="evenodd" d="M37.5286 8.16633C37.5299 8.15396 37.5374 8.14638 37.5513 8.14355C37.5737 8.20246 37.5812 8.26321 37.5741 8.32579C37.5589 8.27264 37.5438 8.21948 37.5286 8.16633Z" fill="#A8A5C3"/>
<path fill-rule="evenodd" clip-rule="evenodd" d="M47.3234 8.66748C47.6678 8.74816 48.002 8.85825 48.3257 8.99778C48.6213 9.27297 48.6555 9.58049 48.4282 9.92033C48.2582 10.0808 48.0569 10.1453 47.8245 10.1139C47.5441 10.0306 47.2632 9.95085 46.9817 9.87477C47.0919 9.47147 47.2058 9.06903 47.3234 8.66748Z" fill="#FBFBFC"/>
<path fill-rule="evenodd" clip-rule="evenodd" d="M38.5991 9.85205C38.621 9.89226 38.6285 9.93781 38.6219 9.98873C38.5916 9.98873 38.5611 9.98873 38.5308 9.98873C38.5469 9.96813 38.5697 9.96055 38.5991 9.96595C38.5991 9.92797 38.5991 9.89002 38.5991 9.85205Z" fill="#7671A0"/>
<path fill-rule="evenodd" clip-rule="evenodd" d="M21.5831 10.5808C22.8829 10.5676 23.7751 11.1599 24.2596 12.3575C24.5763 13.6558 24.1776 14.6695 23.0637 15.3985C21.832 16.021 20.7424 15.835 19.7949 14.8405C19.1161 13.9443 19.0174 12.9876 19.4988 11.9703C19.9721 11.1742 20.6669 10.711 21.5831 10.5808Z" fill="#1D1663"/>
<path fill-rule="evenodd" clip-rule="evenodd" d="M53.9067 14.3621C53.898 14.4021 53.883 14.4401 53.8611 14.476C54.1233 14.6261 54.3889 14.7703 54.6584 14.9088C54.6739 14.8837 54.6889 14.8609 54.7039 14.8405C56.9053 16.1247 58.9099 17.6736 60.7176 19.4874C60.6809 19.5192 60.662 19.5572 60.6607 19.6013C60.855 19.8032 61.0561 19.9968 61.2643 20.1821C61.3001 20.189 61.3304 20.1776 61.3554 20.148C64.1629 23.2092 66.2511 26.7172 67.6197 30.6719C67.6953 30.9436 67.7636 31.217 67.8247 31.4919C67.8819 31.5361 67.916 31.5967 67.9272 31.6742C68.2447 32.7525 68.4992 33.8459 68.6903 34.9543C68.6591 34.9625 68.6363 34.9815 68.6219 35.0113C68.688 35.2719 68.7488 35.5338 68.8042 35.7972C68.8074 35.832 68.8226 35.8548 68.8497 35.8655C69.7297 42.578 68.4882 48.8651 65.1254 54.7266C61.6436 60.5238 56.7575 64.6735 50.467 67.1753C45.7513 68.9639 40.8919 69.5181 35.8885 68.8382C29.1693 67.812 23.4707 64.8621 18.7928 59.9885C14.3965 55.2719 11.8072 49.691 11.0251 43.2459C10.2699 35.7723 12.0543 28.9842 16.3782 22.8815C19.9361 18.0547 24.5338 14.6037 30.1709 12.5284C35.5613 10.6474 41.0436 10.3361 46.6174 11.5944C49.17 12.201 51.5998 13.1235 53.9067 14.3621Z" fill="#A8DABF"/>
<path fill-rule="evenodd" clip-rule="evenodd" d="M21.4919 11.492C22.3785 11.4131 23.0049 11.7776 23.3712 12.5854C23.6336 13.5673 23.3111 14.2848 22.4031 14.738C21.5434 15.0108 20.8562 14.7792 20.3416 14.0432C19.8773 13.0903 20.0785 12.3121 20.9452 11.7084C21.1204 11.6109 21.3027 11.5388 21.4919 11.492Z" fill="#FDFDFD"/>
<path fill-rule="evenodd" clip-rule="evenodd" d="M38.804 12.6765C45.4069 12.4771 51.337 14.3488 56.5944 18.2915C61.609 22.2084 64.9158 27.2615 66.5147 33.451C67.6967 38.4086 67.5372 43.3212 66.0363 48.189C63.9807 54.4647 60.1958 59.4041 54.681 63.0068C49.3172 66.3542 43.4782 67.736 37.1639 67.1526C30.2261 66.3433 24.406 63.3858 19.7038 58.2802C15.4608 53.4963 13.1298 47.8927 12.7106 41.4692C12.4114 34.4628 14.4312 28.2289 18.7698 22.7676C22.6713 18.038 27.6106 14.921 33.5876 13.4168C35.3076 13.0161 37.0466 12.7694 38.804 12.6765Z" fill="#FDFDFD"/>
<path fill-rule="evenodd" clip-rule="evenodd" d="M61.3553 20.1481C61.3303 20.1777 61.3 20.1891 61.2642 20.1823C61.056 19.997 60.8549 19.8034 60.6606 19.6014C60.6619 19.5574 60.6809 19.5194 60.7175 19.4875C60.9027 19.2984 61.085 19.1048 61.2642 18.9067C61.1747 18.8406 61.1139 18.757 61.082 18.6561C61.1941 17.8381 61.3155 17.0218 61.4465 16.2074C61.4389 16.1846 61.4312 16.1618 61.4237 16.139C60.9371 16.6484 60.4512 17.1571 59.9658 17.6652C59.7483 17.459 59.5357 17.2502 59.328 17.0388C60.4389 15.8404 61.5629 14.6521 62.6993 13.4739C62.9162 13.6868 63.1362 13.8957 63.3599 14.1003C62.8822 14.6159 62.3963 15.1247 61.902 15.6265C62.746 15.4847 63.5888 15.3291 64.4305 15.1595C64.4708 15.173 64.5086 15.192 64.5444 15.2165C64.7729 15.4526 65.0082 15.6803 65.2506 15.8998C64.2496 16.0659 63.2474 16.2215 62.2437 16.3668C62.1592 17.011 62.0834 17.6564 62.0159 18.303C62.0234 18.341 62.0312 18.379 62.0387 18.4169C62.2064 18.577 62.3733 18.7365 62.5398 18.8953C62.1446 19.3134 61.7496 19.731 61.3553 20.1481Z" fill="#1D1663"/>
<path fill-rule="evenodd" clip-rule="evenodd" d="M15.2961 15.2961C16.9439 15.9327 18.584 16.5896 20.2164 17.2665C19.9928 17.5091 19.765 17.7483 19.533 17.9841C18.358 17.4709 17.1811 16.9622 16.0023 16.4579C15.9947 16.4655 15.9871 16.4731 15.9795 16.4807C16.5461 17.6327 17.1155 18.7831 17.6879 19.9317C17.4646 20.1778 17.233 20.417 16.9932 20.6492C16.2466 19.0574 15.5063 17.4629 14.7722 15.8656C14.939 15.6685 15.1136 15.4787 15.2961 15.2961Z" fill="#1D1663"/>
<path fill-rule="evenodd" clip-rule="evenodd" d="M41.1958 21.2414C41.2022 21.1978 41.1946 21.1599 41.173 21.1275C41.1063 20.8115 40.9885 20.5154 40.8199 20.2392C40.3653 19.5261 39.8413 18.8655 39.2482 18.2574C38.6887 17.6828 38.1156 17.1247 37.5284 16.5831C37.1591 16.2632 36.7338 16.1569 36.2527 16.2642C35.7937 16.3788 35.3381 16.5079 34.886 16.6515C34.1434 16.9544 33.3917 17.2315 32.6309 17.4829C32.9331 17.2456 33.252 17.0292 33.5876 16.8337C34.0461 16.691 34.5017 16.5391 34.9543 16.3781C35.6404 16.186 36.3388 16.0645 37.05 16.0136C39.0056 15.8815 40.9568 15.9271 42.9042 16.1503C43.5828 16.2305 44.2509 16.3596 44.9088 16.5376C45.3987 16.8021 45.9074 17.0223 46.435 17.1981C47.1368 17.5451 47.8124 17.9323 48.4623 18.3599C50.1502 19.4476 51.7411 20.6663 53.2345 22.0159C53.4445 22.3298 53.6306 22.6563 53.7926 22.9954C53.1217 23.1847 52.5789 23.5567 52.1639 24.1116C51.6666 24.897 51.3249 25.7474 51.1388 26.6628C50.8288 27.9899 50.6315 29.3339 50.5466 30.6947C50.5238 31.1731 50.501 31.6515 50.4782 32.1298C50.4707 33.4966 50.463 34.8633 50.4555 36.23C50.455 37.1829 50.3564 38.1243 50.1593 39.0546C49.8336 40.4403 49.0705 41.5073 47.87 42.2551C46.6837 42.9239 45.4158 43.3567 44.0659 43.5535C43.6543 43.5861 43.2443 43.6316 42.8359 43.6902C42.7022 43.7191 42.573 43.761 42.4486 43.8155C42.4188 42.5095 42.3999 41.2036 42.3917 39.8975C42.3782 37.0045 42.3707 34.1116 42.3689 31.2186C42.3766 29.5911 42.445 27.9663 42.5739 26.3439C42.6707 25.002 43.3883 24.254 44.7265 24.1002C45.2805 24.0735 45.8347 24.0583 46.3894 24.0546C46.5707 24.0339 46.7454 23.9884 46.9133 23.918C47.0079 23.8542 47.0648 23.7667 47.0842 23.656C47.0956 22.8512 47.0994 22.0463 47.0956 21.2414C45.129 21.2414 43.1623 21.2414 41.1958 21.2414Z" fill="#A8DABF"/>
<path fill-rule="evenodd" clip-rule="evenodd" d="M41.1731 21.1276C41.1731 21.158 41.1731 21.1884 41.1731 21.2187C38.3182 21.2187 35.4631 21.2187 32.6082 21.2187C32.6007 21.4279 32.6084 21.6329 32.631 21.8338C32.6185 22.2029 32.6526 22.5674 32.7335 22.9272C32.8807 23.3565 33.1729 23.6413 33.6105 23.7814C33.8494 23.8636 34.0925 23.9319 34.3394 23.9864C34.8182 24.0684 35.2891 24.1823 35.7517 24.3281C36.3886 24.5852 36.8253 25.0372 37.0615 25.6834C37.272 26.3964 37.3668 27.1253 37.3463 27.8702C37.333 28.6905 37.3141 29.5105 37.2893 30.3303C37.2818 34.8253 37.274 39.3205 37.2665 43.8155C37.1838 43.7752 37.0966 43.7488 37.0046 43.7358C36.1729 43.6301 35.3451 43.5012 34.5217 43.3486C33.2989 43.106 32.1977 42.6048 31.2187 41.8452C30.6317 41.3641 30.2025 40.7682 29.9317 40.057C29.6567 39.3053 29.4745 38.5308 29.385 37.7335C29.3458 37.2704 29.3078 36.8073 29.2711 36.344C29.2296 34.6964 29.1916 33.0488 29.1572 31.401C29.116 29.8816 28.9412 28.3782 28.6333 26.8907C28.4718 26.0948 28.2059 25.3356 27.836 24.6128C27.2893 23.6344 26.4656 23.0233 25.3645 22.7791C25.0909 22.7286 24.8176 22.6793 24.5444 22.631C24.9071 21.8319 25.4538 21.1903 26.1845 20.7062C27.9508 19.6939 29.7579 18.7524 31.6059 17.8816C31.9431 17.7358 32.2848 17.6029 32.631 17.483C33.3918 17.2316 34.1435 16.9545 34.8861 16.6515C35.3383 16.508 35.7939 16.3789 36.2529 16.2643C36.734 16.157 37.1592 16.2633 37.5285 16.5832C38.1157 17.1247 38.6889 17.6828 39.2483 18.2575C39.8415 18.8656 40.3654 19.5262 40.8201 20.2392C40.9886 20.5155 41.1064 20.8116 41.1731 21.1276Z" fill="#1C1563"/>
<path fill-rule="evenodd" clip-rule="evenodd" d="M65.8428 18.3712C67.2116 18.3283 68.1417 18.9433 68.6332 20.2163C68.915 21.3103 68.638 22.2329 67.8018 22.984C66.7223 23.7564 65.6442 23.7564 64.5672 22.984C63.5549 22.0476 63.3307 20.9504 63.8952 19.6924C64.3417 18.9546 64.9909 18.5143 65.8428 18.3712Z" fill="#1D1663"/>
<path fill-rule="evenodd" clip-rule="evenodd" d="M65.8656 19.2824C66.8973 19.2171 67.554 19.6803 67.836 20.6719C67.9184 21.6367 67.5048 22.2783 66.5945 22.5968C65.672 22.7638 65.0075 22.4259 64.6014 21.5831C64.3137 20.6135 64.6137 19.8884 65.5011 19.4077C65.6228 19.3585 65.7444 19.3168 65.8656 19.2824Z" fill="#FDFDFD"/>
<path fill-rule="evenodd" clip-rule="evenodd" d="M12.5171 19.6698C13.5581 19.6076 14.3819 19.9949 14.9887 20.8315C15.4767 21.6757 15.5147 22.5414 15.1026 23.4283C14.4958 24.4891 13.5809 24.9561 12.3577 24.8292C11.2372 24.5591 10.5424 23.8643 10.2734 22.7449C10.133 21.5948 10.5392 20.695 11.4921 20.0456C11.8137 19.8588 12.1554 19.7335 12.5171 19.6698Z" fill="#1D1663"/>
<path fill-rule="evenodd" clip-rule="evenodd" d="M12.4942 20.5808C13.229 20.5026 13.8099 20.7608 14.2368 21.3552C14.6278 22.066 14.5747 22.7418 14.0774 23.3826C13.5365 23.9252 12.9025 24.0732 12.1753 23.8268C11.4087 23.4669 11.0632 22.8632 11.1389 22.0158C11.307 21.2669 11.7588 20.7885 12.4942 20.5808Z" fill="#FDFDFD"/>
<path fill-rule="evenodd" clip-rule="evenodd" d="M41.1732 21.1274C41.1948 21.1598 41.2023 21.1977 41.196 21.2413C38.3411 21.2413 35.4859 21.2413 32.631 21.2413C32.631 21.4388 32.631 21.6362 32.631 21.8336C32.6085 21.6327 32.6007 21.4277 32.6083 21.2186C35.4632 21.2186 38.3183 21.2186 41.1732 21.2186C41.1732 21.1882 41.1732 21.1578 41.1732 21.1274Z" fill="#8986AE"/>
<path fill-rule="evenodd" clip-rule="evenodd" d="M23.565 24.8179C23.6217 24.9078 23.6634 25.0065 23.6903 25.114C23.8532 25.8104 23.9443 26.5165 23.9636 27.2324C23.9746 28.4778 23.9707 29.7229 23.9522 30.9682C23.9276 32.4917 23.9998 34.0101 24.1686 35.524C24.3472 37.0545 24.7875 38.5047 25.4898 39.8748C26.4308 41.5397 27.7939 42.7206 29.5787 43.417C31.826 44.2541 34.1418 44.8083 36.5263 45.0798C36.7823 45.0839 37.0367 45.0953 37.2894 45.114C37.3046 49.8445 37.3046 54.5748 37.2894 59.3053C37.2757 60.0199 37.1923 60.7261 37.0388 61.4238C36.798 62.3404 36.2322 62.9593 35.3418 63.2803C35.1258 63.3552 34.9058 63.4122 34.6812 63.4511C34.6147 63.0176 34.5121 62.5924 34.3737 62.1755C34.1085 61.388 33.8502 60.5983 33.5992 59.8065C33.3821 59.137 33.086 58.5067 32.7108 57.9158C32.1493 57.1356 31.4167 56.5776 30.5126 56.2416C29.368 55.835 28.1871 55.6413 26.9705 55.6607C26.2636 55.6719 25.5575 55.7022 24.852 55.7518C24.2285 55.7871 23.7274 55.5593 23.3486 55.0684C23.0219 54.5741 22.8017 54.0352 22.688 53.4511C22.6586 53.1281 22.6814 52.8092 22.7563 52.4944C22.8276 52.2575 22.9037 52.0222 22.9841 51.7883C23.0864 51.434 23.0408 51.1001 22.8475 50.786C22.7391 50.6375 22.6252 50.4933 22.5058 50.3532C22.2708 50.0149 22.2253 49.6504 22.3691 49.2598C22.4163 49.1466 22.4885 49.0516 22.5855 48.975C22.7488 48.8821 22.9083 48.7832 23.0639 48.6789C23.1374 48.6167 23.1983 48.5448 23.2461 48.4625C23.1413 48.3643 23.0274 48.2771 22.9044 48.2006C22.6359 48.076 22.3853 47.924 22.1527 47.745C21.8591 47.488 21.7338 47.1653 21.7768 46.7769C21.8543 46.5065 21.9454 46.2407 22.0502 45.9796C22.1374 45.6044 22.1678 45.2249 22.1413 44.8407C22.1055 44.4842 21.9347 44.2147 21.6288 44.032C21.3223 43.8919 21.0186 43.7477 20.7176 43.5992C19.9919 43.1006 19.6767 42.4133 19.7723 41.5377C19.8818 41.1741 20.0565 40.8477 20.2962 40.5582C21.0378 39.7873 21.7363 38.9826 22.3919 38.1436C22.7782 37.6502 23.0896 37.111 23.3258 36.5263C23.4819 36.1106 23.4894 35.693 23.3486 35.2735C23.1912 34.9511 23.0167 34.6397 22.8247 34.3395C22.5878 33.8905 22.4929 33.4122 22.5399 32.9044C22.5431 32.3413 22.5697 31.7796 22.6197 31.2188C22.7768 29.5486 22.9894 27.8858 23.2575 26.2302C23.3324 25.7523 23.4349 25.2817 23.565 24.8179Z" fill="#1C1563"/>
<path fill-rule="evenodd" clip-rule="evenodd" d="M8.28011 24.9543C8.33114 24.9787 8.37292 25.0165 8.4054 25.0682C8.9379 25.8334 9.47321 26.5965 10.0113 27.3575C10.1714 27.3384 10.3309 27.3081 10.4897 27.2664C11.2931 27.0505 12.098 26.8416 12.9043 26.64C12.7986 26.976 12.6771 27.3063 12.5398 27.6309C11.875 27.7951 11.2144 27.9698 10.558 28.1548C10.9698 28.7051 11.3646 29.2669 11.7425 29.8405C11.6241 30.1646 11.5026 30.4874 11.3781 30.8086C10.813 30.0042 10.2435 29.2033 9.66963 28.4054C8.70307 28.6177 7.74257 28.8569 6.78809 29.1229C6.8826 28.7865 7.00027 28.4562 7.14116 28.132C7.77041 27.9689 8.40064 27.8095 9.03182 27.6537C9.06604 27.6405 9.0964 27.6213 9.12294 27.5967C8.72335 27.0416 8.3285 26.4835 7.93843 25.9225C8.05932 25.6015 8.17321 25.2787 8.28011 24.9543Z" fill="#1D1663"/>
<path fill-rule="evenodd" clip-rule="evenodd" d="M70.5125 26.0023C70.5305 25.9959 70.5458 25.9845 70.5581 25.9681C70.4852 25.9499 70.4169 25.9536 70.3531 25.9795C69.133 26.0542 67.9144 26.1454 66.697 26.2529C66.546 25.9709 66.4055 25.6823 66.2756 25.3873C66.3214 25.3513 66.3745 25.3285 66.4351 25.3189C68.0948 25.2501 69.754 25.1668 71.4123 25.0684C71.4599 25.0693 71.5055 25.0768 71.549 25.0911C71.6476 25.3037 71.7465 25.5164 71.8451 25.729C71.8604 25.7592 71.8604 25.7898 71.8451 25.8201C70.6303 27.0804 69.4153 28.341 68.2005 29.6014C68.0652 29.3233 67.936 29.0422 67.8132 28.7586C67.798 28.7283 67.798 28.6977 67.8132 28.6674C68.7175 27.782 69.6173 26.8936 70.5125 26.0023Z" fill="#1D1663"/>
<path fill-rule="evenodd" clip-rule="evenodd" d="M66.435 25.3188C66.3744 25.3284 66.3214 25.3512 66.2756 25.3872C66.2551 25.371 66.2473 25.3482 66.2528 25.3188C66.3136 25.3188 66.3742 25.3188 66.435 25.3188Z" fill="#A19EBE"/>
<path fill-rule="evenodd" clip-rule="evenodd" d="M70.353 25.9795C70.4168 25.9536 70.4851 25.9499 70.558 25.9681C70.5457 25.9845 70.5305 25.9959 70.5125 26.0023C70.4644 25.9802 70.4113 25.9727 70.353 25.9795Z" fill="#9B97BA"/>
<path fill-rule="evenodd" clip-rule="evenodd" d="M55.7518 27.7334C55.857 27.797 55.9445 27.8806 56.0137 27.984C56.2055 28.3143 56.4028 28.6407 56.606 28.9635C56.8898 29.5225 56.9962 30.1147 56.9249 30.7402C56.9158 30.9229 56.9005 31.1052 56.8793 31.2869C56.7689 31.8393 56.6702 32.3935 56.5832 32.9498C56.4992 33.4184 56.6131 33.8284 56.9249 34.1799C57.3976 34.6701 57.8151 35.2015 58.1778 35.7744C58.2891 35.9042 58.4297 35.984 58.5992 36.0136C59.1083 36.8416 59.6358 37.6578 60.1823 38.4623C60.5866 39.1509 60.4691 39.7318 59.8292 40.2049C59.4267 40.4708 59.0244 40.7364 58.6219 41.0022C58.2172 41.3616 58.0844 41.8058 58.2233 42.3348C58.3465 42.6892 58.4604 43.0459 58.565 43.4054C58.5996 43.7464 58.6071 44.0881 58.5878 44.4304C58.565 44.6924 58.455 44.9088 58.2575 45.0796C57.9962 45.235 57.7267 45.3755 57.4488 45.5011C57.4566 45.6086 57.4793 45.7149 57.5172 45.82C57.6101 45.9983 57.7087 46.173 57.8133 46.3439C57.8575 46.44 57.8955 46.5389 57.9272 46.64C57.9629 46.8892 57.9707 47.1398 57.95 47.3917C57.9224 47.52 57.8768 47.6416 57.8133 47.7562C57.6691 47.9459 57.5247 48.1359 57.3805 48.3257C57.2541 48.5607 57.1782 48.8113 57.1527 49.0774C57.1399 49.6963 57.1436 50.3152 57.1641 50.9339C57.1905 51.6316 57.0955 52.3111 56.8793 52.9726C56.7317 53.3553 56.5078 53.6856 56.2074 53.9635C56.0203 54.0607 55.8306 54.1519 55.6379 54.2368C54.0575 54.5181 52.5085 54.9204 50.991 55.4441C50.5901 55.5951 50.2106 55.7851 49.852 56.0136C49.7807 56.0621 49.7162 56.119 49.6584 56.1844C49.5197 56.3935 49.398 56.6138 49.2939 56.845C49.1142 57.2803 48.9472 57.7209 48.7928 58.1662C48.2128 59.9849 47.6472 61.8072 47.0957 63.6332C46.4614 63.6605 45.8313 63.6186 45.2051 63.5079C44.5871 63.4134 44.0251 63.1856 43.5194 62.8245C43.2165 62.5521 42.985 62.2295 42.8247 61.8564C42.5937 61.1698 42.4645 60.4637 42.4374 59.738C42.4128 58.6828 42.4014 57.6272 42.4033 56.5717C42.4217 52.7448 42.4295 48.9179 42.426 45.091C42.9598 45.0903 43.4912 45.0562 44.0206 44.9885C46.0424 44.6728 48.0167 44.1717 49.9431 43.4851C51.0839 43.0992 52.0748 42.4803 52.9158 41.6286C54.2698 40.0058 55.1279 38.1455 55.4898 36.0477C55.6611 35.0222 55.7598 33.9897 55.786 32.9498C55.7996 31.2108 55.7882 29.4719 55.7518 27.7334Z" fill="#A8DABF"/>
<path fill-rule="evenodd" clip-rule="evenodd" d="M68.8497 35.8655C68.8225 35.8548 68.8073 35.832 68.8041 35.7972C68.7487 35.5338 68.6879 35.2719 68.6219 35.0113C68.6362 34.9815 68.659 34.9626 68.6902 34.9543C68.9465 34.8903 69.2046 34.8334 69.4647 34.7835C69.4893 34.7682 69.5046 34.7455 69.5102 34.7152C69.2449 33.5812 68.9868 32.4461 68.7358 31.3097C68.433 31.3751 68.1294 31.4359 67.8246 31.4919C67.7635 31.217 67.6952 30.9436 67.6196 30.6719C67.6175 30.6491 67.6253 30.6302 67.6424 30.6149C68.2273 30.4794 68.8118 30.3466 69.3964 30.2163C69.421 30.3769 69.4512 30.5364 69.4875 30.6947C70.9301 30.9778 72.3729 31.2626 73.8155 31.5489C73.8813 31.7619 73.9383 31.9783 73.9863 32.1981C74.0116 32.2906 73.985 32.3628 73.9066 32.4145C72.7829 33.2648 71.659 34.1154 70.5353 34.9657C70.5109 34.9826 70.4957 35.0054 70.4897 35.0341C70.5225 35.1742 70.5528 35.3147 70.5809 35.4555C69.9995 35.578 69.4223 35.7147 68.8497 35.8655Z" fill="#1D1563"/>
<path fill-rule="evenodd" clip-rule="evenodd" d="M6.04773 31.2188C7.6647 31.4793 9.28201 31.7377 10.8997 31.9932C10.8615 32.2905 10.8159 32.5866 10.763 32.8816C9.63877 32.7083 8.51501 32.5374 7.39169 32.3691C8.39016 33.2613 9.38866 34.1534 10.3871 35.0456C10.3579 35.3502 10.3161 35.6541 10.2618 35.9568C8.64501 35.6962 7.0277 35.4381 5.40991 35.1823C5.45547 34.8787 5.50103 34.575 5.54659 34.2711C6.67568 34.4695 7.80704 34.6479 8.94066 34.8064C7.93458 33.9067 6.92852 33.0069 5.92244 32.1071C5.95907 31.8112 6.00085 31.5151 6.04773 31.2188Z" fill="#1D1663"/>
<path fill-rule="evenodd" clip-rule="evenodd" d="M68.6902 34.9545C68.4991 33.846 68.2446 32.7526 67.9271 31.6743C67.9159 31.5968 67.8818 31.5362 67.8246 31.492C68.1294 31.436 68.433 31.3752 68.7357 31.3098C68.9868 32.4463 69.2449 33.5813 69.5102 34.7153C69.5045 34.7456 69.4893 34.7684 69.4647 34.7836C69.2045 34.8335 68.9465 34.8905 68.6902 34.9545Z" fill="#FBFBFC"/>
<path fill-rule="evenodd" clip-rule="evenodd" d="M69.7152 31.6514C70.7011 31.8493 71.6881 32.0429 72.6765 32.2322C71.8774 32.8311 71.0765 33.4272 70.2733 34.0204C70.0756 33.2334 69.8895 32.4439 69.7152 31.6514Z" fill="#FCFCFC"/>
<path fill-rule="evenodd" clip-rule="evenodd" d="M69.8747 36.5261C71.5153 37.1503 73.1553 37.7767 74.795 38.4054C74.8323 38.6505 74.8399 38.8972 74.8178 39.1457C73.2171 39.8717 71.6148 40.5929 70.0114 41.3097C69.9961 41.2489 69.9811 41.1883 69.9658 41.1275C69.9567 40.8617 69.9531 40.5958 69.9544 40.3302C70.3672 40.1541 70.7772 39.9719 71.1845 39.7835C71.185 39.176 71.1736 38.5685 71.1503 37.9612C70.7237 37.8202 70.2986 37.6721 69.8747 37.517C69.8524 37.3177 69.8446 37.1166 69.8519 36.9134C69.8446 36.7799 69.8522 36.651 69.8747 36.5261Z" fill="#1D1663"/>
<path fill-rule="evenodd" clip-rule="evenodd" d="M69.8747 36.5262C69.8521 36.651 69.8446 36.78 69.8519 36.9134C69.8218 36.7802 69.8218 36.6435 69.8519 36.5034C69.8658 36.5062 69.8733 36.5139 69.8747 36.5262Z" fill="#9C98BB"/>
<path fill-rule="evenodd" clip-rule="evenodd" d="M6.48054 37.3008C6.51086 37.4634 6.52603 37.6343 6.5261 37.8133C6.5223 37.9842 6.51851 38.155 6.51471 38.3258C5.92986 38.8126 5.75521 39.4201 5.99079 40.1482C6.23179 40.7306 6.66079 41.0914 7.27781 41.2302C8.10968 41.3174 8.72091 40.9946 9.11152 40.2621C9.40494 39.542 9.26826 38.9195 8.7015 38.3942C8.68252 38.0447 8.68633 37.6953 8.71289 37.3463C9.63284 37.804 10.1036 38.5482 10.1252 39.5787C10.0932 40.8388 9.4782 41.6625 8.28009 42.0502C7.16977 42.3204 6.24722 42.0206 5.51243 41.1504C5.10697 40.5689 4.94751 39.9233 5.03407 39.2142C5.19207 38.3277 5.67421 37.6898 6.48054 37.3008Z" fill="#1D1663"/>
<path fill-rule="evenodd" clip-rule="evenodd" d="M72.107 39.3964C72.0918 39.2672 72.0767 39.1383 72.0615 39.0091C72.0608 38.7734 72.053 38.5381 72.0387 38.303C72.5189 38.4668 72.9972 38.6376 73.4738 38.8155C73.0202 39.0157 72.5647 39.2094 72.107 39.3964Z" fill="#FBFBFC"/>
<path fill-rule="evenodd" clip-rule="evenodd" d="M72.0615 39.009C72.0768 39.1382 72.0918 39.2671 72.1071 39.3963C72.1057 39.4086 72.0982 39.4163 72.0843 39.4191C72.0615 39.2833 72.054 39.1466 72.0615 39.009Z" fill="#AEABC7"/>
<path fill-rule="evenodd" clip-rule="evenodd" d="M69.9658 41.1274C69.9811 41.1883 69.9961 41.2489 70.0114 41.3097C70.01 41.322 70.0025 41.3297 69.9886 41.3325C69.9662 41.2657 69.9585 41.1974 69.9658 41.1274Z" fill="#666095"/>
<path fill-rule="evenodd" clip-rule="evenodd" d="M74.7267 42.7905C74.7478 42.8149 74.7556 42.8452 74.7494 42.8816C74.7203 43.2138 74.6822 43.5441 74.6355 43.8725C73.7198 44.1917 72.8087 44.522 71.902 44.8634C72.7146 45.3343 73.5269 45.8049 74.3394 46.2757C74.3312 46.6097 74.3009 46.9438 74.2483 47.278C72.7335 46.3648 71.2148 45.4575 69.6925 44.5559C69.6494 44.5313 69.6267 44.4935 69.6241 44.442C69.6513 44.1331 69.6893 43.8256 69.738 43.5195C70.1237 43.7636 70.5148 43.999 70.9112 44.2256C72.1827 43.7447 73.4544 43.2664 74.7267 42.7905Z" fill="#1D1663"/>
<path fill-rule="evenodd" clip-rule="evenodd" d="M74.7267 42.7904C74.7281 42.7781 74.7356 42.7703 74.7495 42.7676C74.7788 42.8086 74.7788 42.8466 74.7495 42.8815C74.7556 42.845 74.7479 42.8147 74.7267 42.7904Z" fill="#8581AB"/>
<path fill-rule="evenodd" clip-rule="evenodd" d="M10.0571 43.5876C10.1102 43.5876 10.1634 43.5876 10.2165 43.5876C10.2601 43.8831 10.298 44.1792 10.3304 44.476C9.00909 44.6886 7.6879 44.9013 6.36685 45.1138C6.46291 45.7054 6.55403 46.2977 6.6402 46.8906C7.97658 46.6781 9.31294 46.4653 10.6493 46.2528C10.6779 46.5198 10.7159 46.7854 10.7632 47.0501C10.7598 47.0915 10.7446 47.1257 10.7177 47.1526C9.11435 47.4097 7.51223 47.6717 5.91127 47.9384C5.73624 46.7514 5.5464 45.5669 5.3418 44.3849C5.35376 44.3692 5.36895 44.3578 5.38735 44.3507C6.94822 44.1029 8.5048 43.8487 10.0571 43.5876Z" fill="#1D1663"/>
<path fill-rule="evenodd" clip-rule="evenodd" d="M8.28027 49.328C8.46651 49.2979 8.65633 49.2979 8.84975 49.328C10.919 56.0179 14.7079 61.5038 20.2165 65.7858C20.9835 66.3628 21.7693 66.9134 22.5741 67.4373C22.5931 67.6428 22.5893 67.8478 22.5627 68.0523C16.5131 64.2309 12.113 59.0145 9.36228 52.4031C8.96241 51.3895 8.60175 50.3644 8.28027 49.328Z" fill="#A8DABF"/>
<path fill-rule="evenodd" clip-rule="evenodd" d="M71.1276 49.3052C71.3098 49.3052 71.4921 49.3052 71.6743 49.3052C69.7481 55.7084 66.2401 61.0578 61.1504 65.353C59.9636 66.3393 58.7146 67.2391 57.4032 68.0523C57.3843 67.8393 57.388 67.6268 57.4146 67.4145C62.6342 64.0516 66.6014 59.5794 69.3167 53.9977C70.0346 52.4778 70.6383 50.9138 71.1276 49.3052Z" fill="#A8DABF"/>
<path fill-rule="evenodd" clip-rule="evenodd" d="M25.615 72.7677C25.5981 72.8087 25.5753 72.8468 25.5466 72.8816C25.2849 72.7545 25.0268 72.6217 24.7721 72.483C24.7514 72.4509 24.7514 72.4167 24.7721 72.3805C24.9122 72.1461 25.0412 71.9033 25.1594 71.6515C25.0947 71.6078 25.0263 71.5698 24.9544 71.5376C24.9373 71.5176 24.9259 71.4948 24.9202 71.4693C24.8017 70.6169 24.6726 69.7666 24.533 68.9181C24.2065 69.5559 23.8799 70.1937 23.5535 70.8315C23.3084 70.7033 23.0617 70.578 22.8131 70.4556C22.7888 70.4388 22.7735 70.416 22.7676 70.3873C23.4992 68.9506 24.2282 67.5117 24.9544 66.0707C24.974 66.0461 24.9967 66.0422 25.0227 66.0593C25.2806 66.1805 25.5311 66.3135 25.7744 66.4579C25.4689 67.0766 25.1576 67.6916 24.8405 68.303C24.848 68.3105 24.8557 68.3183 24.8633 68.3258C25.625 67.9279 26.3881 67.5331 27.1525 67.1413C27.4692 67.3014 27.7842 67.4648 28.0979 67.631C27.197 68.0643 26.2972 68.501 25.3986 68.9408C25.4826 69.6039 25.5888 70.2645 25.7175 70.9226C25.9366 71.0415 26.153 71.1632 26.3667 71.2871C26.1099 71.7777 25.8594 72.2711 25.615 72.7677Z" fill="#1D1663"/>
<path fill-rule="evenodd" clip-rule="evenodd" d="M54.7267 66.0935C54.7706 66.1195 54.8048 66.1575 54.8292 66.2074C55.603 67.5921 56.3811 68.9741 57.164 70.3532C57.1531 70.3755 57.1381 70.3944 57.1185 70.4101C56.8907 70.5393 56.6629 70.6682 56.4351 70.7974C56.4091 70.8145 56.3864 70.8106 56.3668 70.786C55.5695 69.3737 54.7722 67.9614 53.975 66.5491C54.2308 66.4024 54.4814 66.2505 54.7267 66.0935Z" fill="#1D1663"/>
<path fill-rule="evenodd" clip-rule="evenodd" d="M52.6764 67.2324C52.7065 67.2286 52.7332 67.2361 52.7562 67.2552C52.8612 67.5208 52.9637 67.7866 53.0637 68.0525C52.7774 68.1468 52.4963 68.2568 52.2209 68.3828C52.7332 69.6276 53.2343 70.8769 53.7243 72.1299C53.4466 72.2231 53.1733 72.3295 52.9042 72.4488C52.3883 71.2165 51.8835 69.9789 51.3894 68.7358C51.3819 68.7283 51.3742 68.7206 51.3667 68.7131C51.0915 68.8224 50.8181 68.9363 50.5466 69.0548C50.4297 68.7917 50.3197 68.5261 50.2163 68.2575C50.2297 68.2279 50.2525 68.209 50.2846 68.2005C51.0851 67.8794 51.8824 67.5568 52.6764 67.2324Z" fill="#1D1663"/>
<path fill-rule="evenodd" clip-rule="evenodd" d="M29.1913 68.1663C29.4494 68.2282 29.7075 68.2927 29.9658 68.3599C30.005 68.3717 30.0355 68.3945 30.0569 68.4282C29.8836 69.0239 29.7202 69.62 29.5672 70.2164C29.905 70.3171 30.2428 70.4196 30.5808 70.5239C31.2881 70.841 31.5804 71.384 31.4578 72.1526C31.2799 72.9642 30.7751 73.382 29.943 73.4054C29.8357 73.4034 29.7293 73.392 29.6241 73.3713C29.0455 73.2164 28.4683 73.0569 27.8929 72.8929C27.8811 72.8802 27.8733 72.8649 27.8701 72.8474C28.3084 71.2858 28.7487 69.7255 29.1913 68.1663Z" fill="#1D1663"/>
<path fill-rule="evenodd" clip-rule="evenodd" d="M48.7585 68.6902C48.7885 68.6863 48.8152 68.6938 48.8382 68.713C48.9213 68.9774 49.0011 69.2433 49.0774 69.5102C48.5259 69.6804 47.9717 69.8399 47.4145 69.9886C47.5052 70.3544 47.6113 70.715 47.7334 71.0706C48.2473 70.9399 48.7598 70.7993 49.271 70.6492C49.3013 70.6549 49.3241 70.6701 49.3393 70.6948C49.4223 70.9585 49.4945 71.2241 49.5557 71.492C49.0327 71.6399 48.5088 71.784 47.984 71.9248C48.0829 72.2897 48.1815 72.6542 48.2801 73.0182C48.8195 72.8701 49.3585 72.7182 49.8974 72.5626C49.9414 72.5647 49.9678 72.5875 49.9772 72.631C50.0494 72.89 50.1216 73.1481 50.1936 73.4055C49.3601 73.6319 48.5286 73.8672 47.6993 74.1116C47.6817 74.1084 47.6664 74.1007 47.6537 74.0888C47.2015 72.5232 46.7498 70.959 46.2983 69.3963C47.1239 69.1722 47.9439 68.9369 48.7585 68.6902Z" fill="#1D1663"/>
<path fill-rule="evenodd" clip-rule="evenodd" d="M32.8133 69.1685C33.1001 69.2516 33.3885 69.3275 33.6789 69.3962C33.2461 70.976 32.8133 72.5552 32.3805 74.1343C32.0885 74.0723 31.7999 73.9965 31.5149 73.9065C31.537 73.7776 31.5634 73.6484 31.5946 73.5193C32.0051 72.0701 32.4115 70.6199 32.8133 69.1685Z" fill="#1D1663"/>
<path fill-rule="evenodd" clip-rule="evenodd" d="M44.6127 69.7153C44.7038 69.7153 44.7949 69.7153 44.886 69.7153C45.0008 71.3484 45.1225 72.9809 45.2505 74.6128C44.9527 74.6206 44.6566 74.6434 44.3621 74.6812C44.2578 73.4664 44.1553 72.2516 44.0546 71.0365C43.7076 72.2832 43.3623 73.5322 43.0181 74.7837C42.8168 74.7935 42.6156 74.8049 42.4145 74.8178C42.3575 74.8103 42.3006 74.8026 42.2436 74.7951C41.7373 73.6383 41.2247 72.4841 40.7061 71.3326C40.7887 72.5393 40.8685 73.7465 40.9452 74.9545C40.6484 74.9582 40.3523 74.9732 40.0568 75.0001C39.93 73.3682 39.8086 71.7356 39.6924 70.1026C40.0568 70.0734 40.4213 70.0429 40.7858 70.0115C40.8313 70.019 40.8769 70.0267 40.9225 70.0342C41.4591 71.2367 42.0019 72.4363 42.5512 73.6333C42.9161 72.367 43.2767 71.0989 43.6332 69.8292C43.6612 69.8115 43.6915 69.8001 43.7243 69.7951C44.0243 69.7732 44.3204 69.7465 44.6127 69.7153Z" fill="#1D1663"/>
<path fill-rule="evenodd" clip-rule="evenodd" d="M36.3441 69.7381C36.8427 69.6996 37.2983 69.8171 37.7108 70.0912C38.1623 70.5028 38.2876 71.0003 38.0867 71.5832C37.9338 71.9107 37.6871 72.1347 37.3464 72.2552C37.953 72.5996 38.1616 73.1121 37.9728 73.7927C37.789 74.3654 37.3981 74.6957 36.7997 74.7836C36.1154 74.8871 35.527 74.7012 35.0343 74.2256C34.7427 73.8531 34.6591 73.4431 34.7837 72.9955C35.0678 73.0397 35.3525 73.0777 35.6379 73.1094C35.6197 73.5734 35.8398 73.8429 36.2985 73.918C36.8035 73.9859 37.0844 73.7695 37.1413 73.2688C37.1309 72.9859 36.9942 72.7923 36.7313 72.688C36.5147 72.6299 36.2944 72.5957 36.0707 72.5855C36.1088 72.2971 36.1466 72.0085 36.1846 71.7199C36.4113 71.7558 36.6391 71.7672 36.868 71.754C37.0835 71.683 37.2088 71.5349 37.2439 71.3098C37.2992 70.9379 37.1434 70.7139 36.7769 70.6379C36.4498 70.5697 36.222 70.6875 36.0935 70.9909C36.0555 70.9984 36.0177 71.0062 35.9796 71.0137C35.7236 70.9654 35.4653 70.9349 35.2051 70.9226C35.2985 70.2522 35.678 69.8574 36.3441 69.7381Z" fill="#1D1663"/>
<path fill-rule="evenodd" clip-rule="evenodd" d="M29.3052 71.082C29.6508 71.1488 29.985 71.2513 30.3075 71.3895C30.6114 71.6356 30.6606 71.9278 30.4556 72.2665C30.2777 72.4727 30.0538 72.5524 29.7836 72.5057C29.5187 72.4301 29.2531 72.3579 28.9863 72.2893C29.0891 71.8864 29.1952 71.4841 29.3052 71.082Z" fill="#FBFBFC"/>
</g>
<defs>
<clipPath id="clip0_607_449">
<rect width="80" height="80" fill="white"/>
</clipPath>
</defs>
</svg>
